<?xml version="1.0" encoding="utf-8"?>
<!-- Generator: Adobe Illustrator 23.0.3, SVG Export Plug-In . SVG Version: 6.00 Build 0)  -->
<svg version="1.1" id="Logo" xmlns="http://www.w3.org/2000/svg" xmlns:xlink="http://www.w3.org/1999/xlink" x="0px" y="0px"
	 viewBox="0 0 1366 768" style="enable-background:new 0 0 1366 768;" xml:space="preserve">
<style type="text/css">
	.st0{fill:#CC7997;stroke:#FFFFFF;stroke-width:0.5;stroke-miterlimit:10;}
	.st1{fill:#F4F4F4;stroke:#84084A;stroke-width:0.5;stroke-miterlimit:10;}
	.st2{font-family:'FootlightMTLight';}
	.st3{font-size:102.3298px;}
</style>
<g id="Yggsdrasil">
	<g>
		<g>
			<path class="st0" d="M915.63,540.43c-0.84,3-2.75,4.87-5.5,6.44c-12.3,6.99-18.36,17.97-19.18,31.85
				c-0.38,6.44-0.06,12.93-0.06,20.25c3.5-0.96,6.98-1.3,9.85-2.81c19.57-10.34,31.84-26.12,34.83-48.42
				c0.61-4.56,0.83-5.39,5.67-8.7c0.51,2.18,1.39,4.1,1.35,6.01c-0.47,29.23-25.79,58.07-54.68,62.28
				c-3.13,0.46-6.36,0.42-9.54,0.31c-8.55-0.3-12.88-5.08-12.61-13.65c0.14-4.39-0.17-4.55-4.53-4.01
				c-14.73,1.82-29.45,3.78-44.23,5.15c-4.6,0.43-9.37-0.75-14.04-1.36c-6.6-0.87-9.13,0.37-11.22,6.8
				c-5.66,17.45-15.77,32.05-28.28,45.17c-0.8,0.84-1.67,1.85-2.71,2.21c-4.3,1.5-3.93,4.04-2.6,7.69
				c3.42,9.4,6.38,18.97,9.53,28.47c1.55,4.68,2.72,5.03,6.67,1.97c2.95-2.29,5.88-4.62,8.88-6.97
				c-15.73-13.6-18.37-21.87-11.38-35.19c8.64,0.81,15.97,3.83,19.99,12.23c2.44,5.11,3.74,11.91-0.49,15.84
				c-1.91-2.5-4.04-4.8-5.59-7.44c-1.61-2.72-2.72-5.75-3.94-8.69c-0.99-2.4-2.55-3.59-5.2-3.04c-2.27,5.71,0.06,12.29,5.88,16.56
				c11.72,8.61,28.06,7.57,38.7-2.48c1.03-0.97,2.21-1.87,2.96-3.04c2.27-3.56,5.59-4.77,10.5-4.71c-1,2.95-1.43,5.95-2.91,8.28
				c-7.68,12.04-19.21,16.09-32.89,14.79c-4.53-0.43-8.97-1.76-13.24-2.64c0.43,1.67,1.62,3.67,1.15,5.16
				c-0.53,1.68-2.35,3.17-3.94,4.26c-5.15,3.53-10.38,6.97-15.75,10.14c-1.65,0.97-4.51,1.91-5.7,1.13c-1.26-0.81-1.65-3.7-1.6-5.65
				c0.32-12.57-2.32-24.32-9.11-35.02c-0.43-0.68-0.98-1.27-1.47-1.9c-5.9,11.08-17.01,16.43-25.68,24.32
				c-4.94,4.49-10.33,8.49-14.86,12.18c4.6,0.96,9.43,1.93,14.24,2.96c4.14,0.88,8.23,2.04,12.4,2.69c6.72,1.04,9.71-2.5,8.01-9.16
				c-0.14-0.56-0.32-1.12-0.68-2.35c-4.87,4.58-9.1,10.53-17.25,6.65c1.22-1.64,2.37-3.49,3.82-5.06
				c4.32-4.68,8.69-9.31,13.19-13.82c0.96-0.97,2.51-1.35,3.79-2.01c0.53,1.24,1.39,2.45,1.54,3.74c0.83,7.26,1.61,14.52,2.16,21.8
				c0.33,4.38-1.83,6.72-6.32,6.39c-9.14-0.68-18.25-1.79-27.38-2.71c-0.52-0.05-1.06-0.01-2.27-0.01c2,1.45,3.49,2.53,5.49,3.99
				c-21.81,13.54-45.06,20.4-70.39,19.05c-25.22-1.35-47.21-11.68-67.4-26.47c-0.18,0.28-0.35,0.57-0.53,0.85
				c0.84,1.45,1.67,2.9,2.72,4.72c-5.67,2.07-11.16,3.38-16.97,1.85c-2.91-0.77-4.57-2.98-5.05-5.82
				c-1.12-6.54-1.7-13.08,1.13-19.43c1.15-2.58,2.11-5.24,3.18-7.92c9.23,7.92,18.38,15.76,27.87,23.9
				c2.61-2.11,5.03-4.06,7.48-6.04c-7.5-5.26-15.03-10.03-21.97-15.53c-6.97-5.53-13.35-11.78-19.77-17.52
				c-1.54,4.51-3.59,8.67-4.33,13.06c-1.36,8.09-2.06,16.3-2.8,24.48c-0.37,4.1-0.99,4.87-4.98,3.81
				c-10.8-2.87-18.72-9.63-24.84-18.73c-0.59-0.88-1.17-1.77-1.77-2.64c-0.13-0.18-0.36-0.28,0.14,0.09
				c-2.09,1.15-3.74,2.65-5.58,2.96c-16.98,2.86-36.65-5.45-39.73-26.81c-1.85-12.84,0.45-24.93,10.27-34.13
				c3.63-3.4,8.71-5.47,13.43-7.43c3.98-1.66,8.38-2.32,12.61-3.36c4.47-1.1,7.66,1.34,7.65,6.04c-0.01,11.92-5.82,21.15-14.02,29.1
				c-5.52,5.35-12.01,9.08-19.77,9.96c-0.81,6.34,2.9,13.51,9.7,16.13c6.29,2.41,13.15,3.37,19.77,4.91
				c1.24,0.29,2.53,0.35,4.26,0.58c-1.35-9.12-3.61-18.28,3.78-25.8c4.62-4.7,10.82-5.77,16.75-7.43
				c6.78,16.44,3.88,25.12-11.05,33.05c3.25,3.36,6.36,6.73,9.64,9.92c2.85,2.77,4.1,2.31,5.18-1.61
				c2.42-8.73,4.76-17.49,7.37-26.17c0.52-1.71,2.11-3.1,3.54-5.11c0.28,0.47,0.11,0.01-0.2-0.3
				c-13.85-13.93-22.89-31.03-31.83-48.2c-0.54-1.04-1.03-2.12-1.56-3.17c-3.92-7.74-7-9.25-15.64-7.84
				c-17.45,2.84-34.56,0.94-51.34-4.15c-2.05-0.62-3.55-3.08-5.3-4.69c0.13-0.39,0.25-0.78,0.38-1.17c1.98-0.2,3.99-0.69,5.95-0.56
				c8.23,0.55,16.44,1.4,24.67,1.92c10.3,0.65,20.19-1.7,29.76-5.13c6.71-2.41,10.07-7.92,10.8-14.92c0.44-4.18-1.09-6.47-5.06-8.37
				c-7.45-3.56-15.31-3.15-23.24-2.63c-4.7,0.31-7.89,2.32-10.1,6.45c-1.66,3.09-3.77,5.93-5.63,8.81c1.52,2.64,3.1,2.85,5.22,1.05
				c2.33-1.99,4.99-3.62,7.19-5.73c1.68-1.61,2.73-3.87,4.34-5.58c1.4-1.5,3.19-2.64,4.8-3.93c3.2,2.66,3.36,5.54,2.16,8.83
				c-3.1,8.46-13.7,15.71-22.68,15.4c-4.77-0.16-7.34-2.49-8.02-7.26c-1.82-12.83,8.47-24.99,22.32-25.73
				c8.81-0.47,17.66-0.2,26.49-0.09c8.13,0.1,13.88-3.66,16.36-10.91c0.9-2.64,0.23-3.82-2.66-3.58c-9.87,0.82-19.75,1.5-29.6,2.46
				c-4.58,0.44-5.79,2.24-5.93,6.72c-0.03,0.96-1.13,2.66-1.81,2.69c-3.55,0.2-7.24,0.49-10.65-0.27c-3.01-0.67-5.71-2.7-8.58-4.09
				c-4.01-1.94-5.5-1.29-6.73,2.92c-0.72,2.48-1.24,5.04-2.14,7.46c-2.21,5.97-6.44,10.09-12.31,12.44
				c-4.26,1.71-6.86,0.4-7.97-4.06c-2.18-8.73-0.6-16.38,6.85-22.17c0.56-0.43,1.14-0.85,1.62-1.37c2.18-2.31,1.74-4.14-1.41-4.68
				c-5.1-0.88-10.26-1.48-15.4-2.08c-3.04-0.36-6.1-0.59-9.16-0.73c-3.36-0.16-4.29,1.35-2.64,4.33c0.91,1.64,2.06,3.16,3.18,4.67
				c10.27,13.76,16.46,29.15,17.34,46.31c0.3,5.9-1.13,11.91-2.03,17.83c-0.51,3.37-3.16,4.81-6.25,5.38
				c-1.85,0.34-3.74,0.46-5.62,0.66c-4.38,0.46-5.19,1.87-2.92,5.73c1.18,2.01,2.76,3.79,4.26,5.6c2.53,3.05,5.15,6.05,7.87,9.23
				c-3.84,2.12-7.01,1.74-10.3-0.31c-7.43-4.62-10.29-11.64-10.85-19.94c-0.1-1.41-0.1-2.84,0-4.25c0.77-10.72-3.89-17.75-14-21.5
				c-6.41-2.38-11.16-6.91-14.54-12.87c-3.28-5.79-4.81-12.1-4.66-18.65c0.12-5.07-0.33-9.16-6.36-10.21
				c-1.06-0.19-1.98-1.19-3.32-2.04c0.94-1.61,1.81-3.08,2.64-4.5c8.55,2.54,9.13,2.21,11.5-6.54c0.61-2.25,1.12-4.52,1.73-7
				c-7.14,2.87-11.15-4.26-17.48-4.49c3.12,4.76,1.37,9.71,0.62,14.55c-4.47,28.98,9.57,55.08,36.14,67.46
				c2.36,1.1,3.93,3.92,5.86,5.94c-0.24,0.51-0.47,1.02-0.71,1.53c-2.17-0.23-4.53,0.01-6.49-0.77
				c-25.4-10.01-42.46-34.8-42.62-62.1c-0.02-4.29-1.04-6.53-5.36-8.28c-9.49-3.83-17.02-14.8-15.34-26.53
				c0.53-3.67-0.59-6.7-3.3-9.24c-8.19-7.67-11.09-16.85-8.47-27.93c0.47-2-0.5-5.06-1.91-6.67c-9.19-10.5-9.76-21.76-3.58-33.73
				c1.38-2.67,1.21-4.74-0.5-7.15c-17.03-23.97-17.51-54.18-1.13-78.51c2.47-3.67,2.93-6.65,0.57-10.63
				c-5.41-9.16-3.78-21.89,3.94-30.61c2.93-3.32,3.99-5.88,2.79-10.67c-2.72-10.87,1.7-19.82,10.32-26.73
				c1.44-1.15,2.95-2.21,4.92-3.68c-4.02-0.72-3.95-3.49-4.16-6c-1.06-13.08,6.83-25.22,19.75-30.51
				c5.33-2.18,10.73-4.21,15.96-6.61c5.25-2.41,8.27-6.71,9.57-13.35c-3.22,2.1-5.91,3.65-8.37,5.5c-4.24,3.19-8.26,6.67-12.53,9.81
				c-1.06,0.78-2.96,1.26-4.09,0.84c-0.77-0.28-1.3-2.42-1.19-3.65c1.53-16.61,7.2-31.19,21.12-41.49c1.73-1.28,3.85-2.02,6.1-3.18
				c1.08,3.14,0.19,5.19-1.35,7.27c-4.13,5.58-8.2,11.2-12.13,16.92c-0.81,1.18-0.91,2.85-0.81,4.67
				c6.94-2.66,12.24-7.44,18.56-11.59c-3.18-1.82-2.99-4.31-2.65-7.1c1.41-11.51,3.69-22.78,12.13-31.37
				c2.91-2.96,7.29-4.52,11.13-6.46c0.57-0.29,1.86,0.83,3.32,1.55c2.3-4.42,4.53-9.31,7.29-13.89c4.06-6.74,7.91-13.74,12.91-19.74
				c6.74-8.09,16.31-11.87,26.55-13.52c4.82-0.77,8.29-2.43,10.91-7.02c5.25-9.18,14-12.13,24.16-11.33
				c2.4,0.19,3.69-0.21,4.78-2.68c3.79-8.58,11.1-12.2,20-12.9c12.48-0.99,24.54,2.07,36.69,4.18c0.42,0.07,0.8,0.4,1.18,0.6
				c-1.62,5.46-8.06,8.18-14.46,6.52c-6.02-1.56-12.07-3.43-18.22-4.06c-8.78-0.9-16,2.73-21.46,9.84
				c5.86,3.38,11.27,2.3,16.02-2.66c1.74-1.82,3.89-3.42,6.15-4.49c1.39-0.66,3.34-0.12,6.03-0.12c-2.37,3.4-4.18,5.83-5.8,8.38
				c-2.01,3.18-4.19,6.31-5.69,9.72c-3.84,8.72-2.03,13.8,6.4,18.41c4.03,2.2,8.23,4.09,12.37,6.07c6.16,2.94,12.33,5.89,18.54,8.74
				c1.88,0.86,3.9,1.4,5.86,2.09c0.35-0.24,0.7-0.48,1.06-0.72c-1.03-3.12-1.57-6.52-3.16-9.32c-5.29-9.29-4.22-19.11,3.38-26.06
				c1.01-0.92,2.42-1.42,3.87-2.24c2.48,10.88,4.19,20.97,1.12,31.36c-1.72,5.82-0.34,11.44,4.04,15.7
				c12.83,12.49,24.24,26.48,38.89,37.07c4.23,3.06,6.15,2.66,7.55-2.39c2.41-8.71,1.34-17.06-3.52-24.78
				c-2.68-4.25-6.44-6.16-11.62-5.83c-12.89,0.82-24.53-7.22-27.9-18.94c-1.07-3.72-0.26-4.67,3.4-3.82
				c5.62,1.31,11.22,2.67,16.83,4.02c6.6,1.59,11.32,5.44,14.33,11.57c1.18,2.4,2.82,4.63,4.52,6.71c0.66,0.8,2.33,1.56,3.11,1.25
				c0.84-0.33,1.61-1.91,1.67-2.99c0.61-10.58-9.15-23.2-19.59-25.21c-4.04-0.78-8.18-1-12.28-1.43
				c-6.73-0.71-12.9-5.84-14.41-12.31c-0.28-1.21-0.04-2.94,0.69-3.83c0.48-0.59,2.34-0.4,3.45-0.1c6.4,1.74,12.16,4.25,15.22,10.92
				c0.72,1.57,3.35,2.28,5.1,3.38c0.41-0.41,0.83-0.83,1.24-1.24c-1.3-2.07-2.4-4.32-3.95-6.19c-5.95-7.18-14.08-11.28-22.17-15.46
				c-2.76-1.43-5.24-3.39-8.72-5.67c-5.97,6-12.65,12.56-19.15,19.3c-2.44,2.54-4.43,5.52-6.66,8.26c-2.86,3.51-4.63,3.78-8.48,1.37
				c-1-0.63-1.97-1.29-2.95-1.96c-1.74-1.18-1.82-2.47-0.5-4.13c12.43-15.6,26.54-29.38,43.33-40.3c1.48-0.96,2.65-2.39,3.96-3.6
				c-0.2-0.35-0.4-0.7-0.6-1.05c-4.26,1.43-8.44,3.28-12.82,4.17c-4.53,0.93-9.24,0.93-13.87,1.33c-0.22-0.4-0.44-0.8-0.66-1.2
				c0.81-1.12,1.46-2.42,2.46-3.33c5.49-4.98,12.16-5.7,19.19-5.2c4.46,0.32,8.94,0.47,13.41,0.53c1.31,0.02,2.63-0.54,3.94-0.84
				c0.06-0.38,0.12-0.76,0.17-1.14c-1.77-0.63-3.48-1.52-5.31-1.85c-12.96-2.36-24.66,0.98-35.79,7.61
				c-3.78,2.26-8.22,3.41-12.61,4.54c2.64-5.29,6.68-8.86,11.54-11.35c15.46-7.94,31.45-11.1,48.42-4.94
				c1.23,0.44,3.61,0.15,4.28-0.71c6.88-8.79,15.91-9.31,25.21-5.91c5.74,2.09,10.04,2.25,15.34-1.36
				c7.12-4.85,14.82-3.11,21.49,1.67c3.49,2.5,6.05,2.66,9.77,0.46c7.07-4.16,14.56-3.58,21.6,0.3c6.31,3.48,12.93,4.12,19.86,3.24
				c19.62-2.51,36.66,2.79,50.62,16.99c2.47,2.51,4.63,3.59,8.39,3c9.28-1.45,16.96,2.19,22.54,9.58c2.89,3.83,5.93,5.69,10.94,5.52
				c8.24-0.29,14.37,4.03,18.64,10.87c2.17,3.48,3.91,7.23,6.13,11.41c0.29-4.68,3.26-4.46,6.12-3.82
				c19.25,4.3,32.91,15.64,41.22,33.4c1.06,2.26,0.97,5.06,1.57,8.53c2.22,0.9,5.53,2.41,8.96,3.59
				c8.79,3.03,13.25,9.85,15.82,18.16c0.38,1.24-0.87,2.99-1.48,4.84c0.86,0.42,2.16,1.19,3.55,1.73
				c16.82,6.54,25.93,19.08,29.24,36.55c2.52,13.32,3.59,26.62,1.4,40.05c-0.31,1.92-1.12,3.76-1.85,6.1
				c4.32,2.93,10.34,4.67,11.87,11.52c4.64-7.39,4.17-18.53-3.34-25.89c-4.26-4.17-4.27-4.76-3.15-11.39
				c2.06,0.97,4.22,1.56,5.84,2.83c6.66,5.23,10.31,12.13,10.63,20.67c0.03,0.71,0.11,1.43,0,2.12c-1.17,7.37,0.83,13.09,6.57,18.5
				c6.49,6.12,6.74,14.71,5.02,23.17c-0.47,2.29-1.14,4.53-1.46,5.79c2.06,1.49,3.98,2.32,5.1,3.78c7.78,10.09,7.08,20.72,1.6,31.54
				c-0.74,1.47-1.58,2.89-2.44,4.44c2.02,2.16,4.16,4.17,5.98,6.45c5.39,6.76,7.64,14.78,8.9,23.15
				c2.32,15.38,1.45,30.37-6.04,44.39c-1.93,3.62-4.38,6.98-6.81,10.3c-1.8,2.47-2.44,4.62-0.3,7.29c6.19,7.69,6,15.93,1.09,24.01
				c-4.75,7.82-7.21,15.92-6.17,25.17c0.52,4.66-1.07,9.02-4.31,12.7c-4.85,5.52-7.42,12.04-7.37,19.4
				c0.05,7.65-3.24,13.66-9.36,17.66c-4.55,2.97-9.71,5.4-14.94,6.84c-11.03,3.03-14.49,6.78-14.9,18.21
				c-0.47,13.18-11.78,26.73-24.69,29.49c-1.14,0.24-2.41,0.39-3.5,0.11c-0.97-0.25-2.3-1.02-2.52-1.81c-0.23-0.87,0.35-2.36,1.08-3
				c1.12-0.97,2.64-1.49,4.03-2.13c13.35-6.08,21.38-19.47,19.58-32.92c-0.2-1.52-1.18-2.93-1.79-4.39
				c-0.49-2.98-0.78-6.01-1.51-8.93c-1.28-5.07-3.22-5.91-7.51-3.15c-17.9,11.51-29.23,27.68-33.9,48.47
				c-0.69,3.06,0.59,4.37,3.65,4.49c1.6,0.06,3.39,0.26,4.71,1.04c0.96,0.57,1.75,2.23,1.71,3.37c-0.02,0.65-1.81,1.53-2.91,1.77
				c-1.46,0.32-3.06-0.02-4.57,0.16c-2.12,0.25-3.01,1.57-2.77,3.72c0.8,7.35,8.94,11.26,15.21,7.29c-2.92-1.4-3.14-1.78-3.14-5.1
				c0.01-4.48,0.04-8.95-0.02-13.43c-0.22-16.36,6.1-29.18,20.14-38.03C908.15,539.96,911.64,539.08,915.63,540.43z M915.63,180.68
				c0.45,5.04,0.48,10.16,1.45,15.1c1.12,5.71,2.53,11.48,4.8,16.81c2.03,4.76,6.34,7.8,11.6,9.42c-2.8-4.78-5.79-9.43-9.65-13.19
				c-3.78-3.7-4.24-7.67-3.5-12.96c4.01,2.54,7.57,4.79,11.12,7.04c0.25-0.26,0.51-0.52,0.76-0.79
				c-1.46-7.98-4.64-15.02-11.86-19.65c-1.4-0.89-3.21-1.13-4.84-1.67c-1.03-0.82-1.93-2.03-3.1-2.39
				c-4.49-1.39-9.05-2.61-13.62-3.7c-3.53-0.84-5.39-3-5.95-6.54c4.52-3.34,9.43-0.43,14.33-0.65c-1.58-1.67-3.41-2.87-4.21-4.56
				c-3.99-8.41-10.86-12.33-19.74-13.59c-1.55-0.22-3.23-0.98-4.37-2.02c-0.92-0.83-1.43-2.45-1.46-3.74
				c-0.01-0.51,1.76-1.13,2.78-1.55c0.88-0.35,1.85-0.48,2.78-0.7c-5.13-2.68-6.65-7.58-8.9-11.95
				c-7.68-14.95-21.06-21.3-35.98-24.45c-1.41,2.23-2.49,3.94-3.65,5.77c12.4,3.26,25.11,6.56,33.28,18.29
				c6.55,9.4,13.32,31.22,10.19,37.41c-1.07-0.97-1.96-2.2-2.56-3.55c-2.35-5.25-4.92-10.43-6.82-15.84
				c-2.1-5.97-4.63-11.6-8.98-16.26c-4.91-5.25-10.88-8.7-18.37-10.77c2.8,9.11,8.9,13.98,16.53,17.63
				c2.39,1.14,4.32,3.38,6.22,5.35c1.93,1.99,0.7,3.37-1.36,4.2c-2.61,1.06-5.38,1.79-7.89,3.05c-5.69,2.85-8.59,8.85-7.7,15.35
				c3.07-2.61,3.84-2.54,7.57-0.97c6.5,2.73,13.02,5.46,19.69,7.72c4.04,1.37,6.3-0.36,6.86-4.63c0.35-2.66,0.09-5.4,0.36-8.08
				c0.26-2.61,0.86-5.18,1.33-7.9c6.18,2.34,6.69,3.04,6.77,8.64c0.03,2.01,0.08,4.01-0.02,6.02c-0.49,10.05,3.4,16.96,12.55,19.59
				c2.33,0.67,3.46,2.35,3.53,4.71c0.07,2.22,0.01,4.45,0.01,7.08c-2.59-0.76-5.07-1.39-7.49-2.21
				c-15.72-5.32-31.44-10.63-47.11-16.11c-2.48-0.87-4.66-2.62-7.03-3.98c-1.59,5.61-5,11.56-5.28,18.61
				c2.55-1.3,4.62-2.97,6.78-4.5c6.93-4.9,14.29-5.76,22.01-2.07c0.89,0.43,1.74,1.58,1.95,2.55c0.11,0.48-1.18,1.43-1.98,1.92
				c-1.31,0.79-2.75,1.34-4.11,2.04c-5,2.59-10.03,4.36-15.91,3c-3.55-0.82-7.31,0.19-9.74,3.04c-6.56,7.72-12.93,15.61-19.17,23.6
				c-2.36,3.03-1.28,6.9,2.05,8.76c3.5,1.96,7.25,2.71,11.25,1.85c8.75-1.88,13.69-7.34,15.19-16.81
				c1.66-10.53,10.99-19.38,20.7-19.67c1.94-0.06,3.88-0.01,2.96,2.77c-3.57,10.75-7.38,21.27-19.1,26.17
				c-2.93,1.22-5.14,3.57-5.38,7.71c8.12,0.38,15.76-0.23,22.33-5.07c1.61-1.19,3.02-3.7,3.14-5.68
				c0.65-10.79,7.85-16.99,15.45-22.96c1.81-1.42,3.52-0.64,3.61,1.55c0.39,10.1-2.07,20.33-13.29,24.46
				c-2.79,1.03-4.87,3.1-5.79,6.52c1.46,0.25,2.79,0.87,3.93,0.61c8.59-1.97,17.25-3.76,25.65-6.35c5.28-1.63,7.99-6.17,8.17-11.72
				c0.15-4.82-0.01-9.67-0.33-14.48c-0.4-5.99-1.14-11.96-1.68-17.94c-0.39-4.26,0.74-5.06,4.87-3.63
				C913.35,180.1,914.5,180.36,915.63,180.68z M589.52,301.82c0.14-0.44,0.27-0.87,0.41-1.31c-0.44-0.94-0.7-2.05-1.36-2.8
				c-4.8-5.49-10.57-9.51-18-10.18c-8.29-0.75-15.09,1.23-19.47,9.53c-2.08,3.95-6,7.26-9.76,9.91c-4.95,3.49-10.55,6.06-15.88,9
				c-0.55,0.3-1.23,0.37-2.71,0.8c0.3-3.41,0.28-6.32,0.85-9.11c2.14-10.57,8.95-22.33,26.03-22c4.61,0.09,9.29-1.23,13.87-2.22
				c1.26-0.27,2.27-1.66,3.39-2.54c-0.98-0.92-1.8-2.19-2.96-2.69c-8.77-3.75-17.53-7.53-26.45-10.9
				c-3.56-1.35-7.54-2.53-11.27-2.36c-15.95,0.72-19.48,7.38-17.46,20.23c1.69,10.75-3.54,19.48-9.55,27.95
				c-0.7-0.65-1.23-0.98-1.55-1.45c-4.65-7.08-7.52-24.07,3.06-32.42c2.27-1.79,4.32-3.88,4.27-7.99c-2.24,0.71-4.21,1.01-5.86,1.9
				c-7.38,3.96-10.79,10.75-10.96,18.61c-0.3,14.06-7.49,25.32-13.69,37.04c-1.34,2.52-3.26,2.55-4.36-0.07
				c-1.58-3.75-3.12-7.72-3.55-11.71c-1.17-11,0.68-21.02,10.14-28.55c9.31-7.42,18.22-15.35,27.27-23.1
				c1.41-1.21,2.64-2.62,3.95-3.94c-1.98-0.81-3.4-0.98-4.77-0.79c-9.56,1.35-19.14,2.61-28.66,4.22
				c-11.16,1.88-18.43,8.83-20.26,19.82c-1.01,6.06-3.47,11.19-7.16,15.89c-3.2,4.08-6.43,8.15-9.72,12.16
				c-2.35,2.86-3.84,2.59-5.25-0.8c-4.9-11.79,0.5-27.47,11.66-34.4c5.7-3.54,11.23-7.35,16.79-11.12c1.21-0.82,2.19-1.98,3.28-2.99
				c-0.07-0.43-0.15-0.87-0.22-1.3c-2.92-0.17-5.89-0.76-8.76-0.44c-14.01,1.54-25.52,8.49-36.2,17.17
				c-9.28,7.54-11.76,17.04-9.03,28.48c1.66,6.95,2.8,14.04,3.83,21.11c0.67,4.62,0.73,9.33,1.09,14.39
				c-5.26-0.85-8.51-3.96-11.67-7.04c-8.94-8.71-9.96-18.38-3.58-29.08c2.1-3.52,3.63-7.39,5.21-11.18c0.42-1,0.06-2.32,0.06-3.97
				c-1.64,0.73-2.83,1.02-3.73,1.7c-6.19,4.72-12.29,9.56-18.47,14.3c-1.93,1.48-2.04,3.21-1.3,5.32
				c3.83,10.83,1.04,19.93-7.49,27.34c-2.79,2.42-3.13,4.83-1.58,8.09c10.53,22.24,10.41,44.58,0.39,66.97
				c-2.19,4.89-2.11,5.67,1.77,9.22c7.72,7.07,10.09,15.67,7.52,25.67c-0.76,2.95-0.19,5.47,1.82,7.49
				c6.09,6.12,8.64,13.26,7.29,21.88c-0.72,4.62,1.17,8.24,5.09,10.87c3.92,2.64,6.04,6.53,5.59,11.15
				c-0.96,9.83-2.13,19.65-3.69,29.39c-0.93,5.84-1.31,5.74,4.07,8.21c13.13,6.02,21.98,15.61,24.84,30.1
				c0.48,2.42,0.3,5.03,1.1,7.32c0.62,1.78,2.16,4.37,3.52,4.52c2.6,0.28,5.4-0.8,8.03-1.62c0.4-0.13,0.61-1.98,0.36-2.88
				c-5.42-19.75-15.09-36.53-33.32-47.27c-2.34-1.38-4.1-3.14-3.52-6.28c0.57-3.12,2.26-5.25,5.33-5.86
				c2.29-0.46,4.7-0.65,7.02-0.52c9.08,0.51,18.07,0.81,27.06-1.41c4.52-1.12,9.41-1.81,14.01-1.37c10.64,1,21.33,2.22,31.77,4.42
				c16.89,3.55,33.22,3.27,49.07-4.14c10.46-4.89,20.78-10.1,31.4-14.59c13.28-5.61,22.08-15.37,27.95-28.14
				c3.92-8.52,8.82-16.35,14.97-23.46c7.12-8.23,12.32-17.53,14.5-28.32c0.93-4.62,2.08-9.21,2.68-13.87
				c1.41-10.92,5.14-21.51,4.03-32.81c-1.48-15.03-5.6-28.93-15.86-40.4c-6.68-7.47-13.52-14.8-20.49-22.01
				c-7.15-7.39-12.43-7.1-19.15,0.81c-3.54,4.17-7.73,7.28-13.12,8.47c-4.13,0.91-8.3,1.61-12.46,2.39
				c-3.39,0.64-4.39-0.52-3.26-3.75c4.98-14.25,14.77-20.04,29.48-17.68C581.66,301.47,585.61,301.51,589.52,301.82z M944,419.12
				c-1.51-1.39-2.96-2.43-4.02-3.78c-1.14-1.46-2.12-3.12-2.8-4.84c-8.01-20.49-7.3-40.74,1.74-60.76
				c2.52-5.57,2.31-6.58-2.25-10.69c-5.32-4.8-8.06-10.73-7.53-17.9c0.26-3.5,1.19-6.94,1.69-10.42c0.15-1.04,0.31-2.65-0.26-3.13
				c-2.93-2.46-6.11-4.64-9.28-6.99c-2.86,3.94-0.69,7.38-0.44,10.74c0.51,6.77,2.15,13.6,1.6,20.26
				c-0.75,9.16-6.49,15.55-15.19,20.09c0-4.53-0.1-8.46,0.02-12.39c0.26-8.57,1.65-16.8,6.23-24.35c4.25-7,3.52-13.82-1.58-20.35
				c-7.3-9.36-16.67-15.88-27.36-20.7c-0.99-0.44-2.15-0.5-3.98-0.9c0.54,1.65,0.62,2.75,1.18,3.47c3.54,4.56,7.24,8.98,10.77,13.54
				c2.94,3.8,6.36,7.41,8.45,11.65c3.83,7.75,3.6,15.76-0.6,23.53c-3.5-3.94-6.49-7.93-10.11-11.23
				c-6.88-6.26-10.22-13.72-9.12-22.99c0.91-7.65-1.93-13.86-7.89-18.23c-4.79-3.52-10.03-6.71-15.52-8.94
				c-10.89-4.42-22.53-4.62-34.12-4.43c-0.92,0.02-1.83,0.53-3.42,1.02c1.56,1.15,2.44,1.88,3.4,2.5
				c8.13,5.23,16.25,10.48,24.42,15.65c7.15,4.53,12.33,10.63,14.71,18.78c2.08,7.11,2.03,14.25-0.74,21.61
				c-1.06-0.81-1.78-1.22-2.33-1.8c-5.25-5.59-10.54-11.14-15.66-16.84c-4.48-4.98-6.93-10.77-7.07-17.63
				c-0.18-8.98-7.91-15.02-18.12-13.62c2.53,3.68,4.68,7.11,7.14,10.3c3.8,4.91,7,10.04,7.82,16.37c1.01,7.79-4.58,18.4-11.5,20.93
				c-1.66-6.14-3.47-12.21-4.9-18.36c-1.31-5.66-1.35-11.37-0.24-17.16c1.12-5.83-0.7-10.53-4.96-12.09
				c-8.44-3.07-17.33-6.03-26.23-3.53c-12.21,3.43-24.14,7.88-36.02,12.35c-4.55,1.71-8.69,4.59-12.92,7.1
				c-0.98,0.58-1.57,1.79-2.35,2.72c0.16,0.29,0.32,0.59,0.48,0.88c1.53-0.29,3.11-0.43,4.6-0.9c9.33-2.91,18.5-6.41,27.97-8.72
				c14.68-3.58,28.93,7.06,29.94,21.92c-4.84-1.1-9.59-2.94-14.4-3.09c-7.34-0.24-13.42-2.77-19.24-6.93
				c-6.52-4.66-14.94-3.07-20.38,3.83c3.5,0.79,6.74,1.84,10.05,2.22c16.77,1.93,25.79,11.94,25.13,28.24
				c-0.06,1.42-0.56,2.83-0.92,4.58c-2.61-1.79-4.76-3.21-6.86-4.71c-7.67-5.48-15.14-10.99-20.94-18.77
				c-8.01-10.75-27.24-11.82-35.85,1.48c-6.88,10.63-9.73,21.44-5.42,33.81c3.07,8.81,2.62,17.84-1.61,26.14
				c-11.82,23.18-14.31,47.59-10.42,72.93c1.56,10.14,5.2,19.2,13.54,26c9.58,7.82,19.24,15.61,28.12,24.18
				c26.67,25.71,57.29,35.36,93.71,25.47c7.9-2.15,16.64-2.64,24.83-1.97c15.99,1.32,31.91,2.91,47.98,2.22
				c3.16-0.14,4.03-0.83,3.34-4.17c-1.71-8.27,0.15-15.76,6.5-21.65c2.66-2.46,5.73-4.47,8.09-6.29c-0.8-1.84-1.96-3.55-2.26-5.41
				c-1.18-7.18,0.94-13.53,5.63-18.99c1.97-2.3,4.28-4.32,6.39-6.43c-6.31-10.81-4.71-20.35,4.74-28.77
				C939.55,422.93,941.7,421.12,944,419.12z M580.93,234.61c0.88,0.1,1.97,0.02,2.89,0.37c11.15,4.24,20.23,10.33,19.65,25.87
				c-0.38,9.98,8.5,18.19,18.46,17.8c2.91-0.11,4.9-1.42,6.05-4.07c3.1-7.19-0.67-15.8-8.07-18.36
				c-9.97-3.45-13.3-12.53-18.62-21.05c6.8-0.68,12.6,0.25,16.64,4.27c3.74,3.73,6.07,8.88,8.98,13.34c0-0.57,0.25-1.46-0.04-2.13
				c-3.11-7.24-5.92-14.64-9.57-21.6c-3.22-6.14-9.02-8.53-15.67-6.46c-11.66,3.62-22.98,0.24-34.58-0.35
				c4.57-12.27,21.46-18.26,32.07-11.57c4.08,2.57,7.82,5.67,11.81,8.38c1.13,0.77,2.62,1.01,3.94,1.5c0.2-0.26,0.41-0.53,0.61-0.79
				c-0.6-1.22-0.99-2.59-1.82-3.62c-7.63-9.46-15.27-18.91-23.03-28.25c-3.61-4.34-6.33-4.33-10.89-0.82
				c-2.4,1.85-4.94,3.71-7.71,4.87c-6.54,2.75-15.99-0.53-19-6.76c5.19-1.91,10.2-4.52,15.52-5.49c5.2-0.94,10.71-0.21,16.87-0.21
				c-1.39-1.27-2.31-2.84-3.37-2.94c-5.8-0.57-11.81-1.85-17.41-0.91c-13.89,2.33-27.99-6.09-29.76-18.91
				c-0.22-1.59,0.42-3.29,0.67-4.94c1.48,0.31,3.11,0.33,4.43,0.97c11.36,5.47,22.64,11.08,34.01,16.53
				c0.91,0.43,2.24-0.03,3.38-0.07c-0.07-1.06,0.23-2.34-0.26-3.15c-5.62-9.18-12.95-15.59-24.49-16.23
				c-8.33-0.46-15.24-3.81-18.16-12.78c5.28-0.55,10.21-0.44,14.26,3.48c1.61,1.56,3.14,3.24,4.93,4.56
				c1.39,1.02,3.12,1.57,4.7,2.33c0.26-0.35,0.51-0.69,0.77-1.04c-0.78-1.03-1.38-2.31-2.38-3.04
				c-7.69-5.64-15.19-11.63-23.28-16.65c-12.84-7.96-26.87-11.83-42.17-9.94c-1.95,0.24-4.03,0.15-5.95-0.26
				c-1.05-0.23-2.57-1.38-2.65-2.23c-0.11-1.18,0.65-2.78,1.58-3.61c0.95-0.86,2.51-1.25,3.86-1.43c4.08-0.57,8.21-0.84,12.29-1.41
				c5.89-0.83,11.99-1.64,14.85-7.88c0.87-1.9,1.32-4.9,0.4-6.47c-0.99-1.68-3.83-2.26-5.86-3.32c-0.71,2.62-0.8,4.52-1.69,5.91
				c-4.03,6.36-9.64,10.21-17.47,10.22c-1.64,0-3.28,0.24-4.91,0.42c-2.6,0.29-3.82,1.75-4.22,4.37c-0.67,4.42-1.71,8.78-2.47,13.19
				c-1.99,11.49-4.02,22.97-5.83,34.49c-1.31,8.33,2.73,13.07,11.18,13.53c1.06,0.06,2.12,0.06,3.18,0.04
				c5.34-0.07,9.26-2.47,11.56-7.3c2.26-4.75-0.1-8.41-3.06-11.84c-1.46-1.7-3.16-3.2-4.5-4.99c-5.08-6.81-5.98-14.2-2.51-21.97
				c0.44-0.99,1.7-1.89,2.77-2.22c0.51-0.15,1.63,1.02,2.17,1.81c2.14,3.11,4.21,6.26,6.2,9.47c3.02,4.87,3.88,9.99,1.79,15.53
				c-0.44,1.16-0.06,2.63-0.06,3.96c0.42,0.11,0.83,0.22,1.25,0.33c1.06-1.33,2.3-2.56,3.16-4.01c4.48-7.48,8.88-15.01,13.29-22.53
				c1.3-2.21,2.66-4.19,5.75-3.75c5.71,0.83,8.02,4.76,5.84,10.01c-5.19,12.51-10.41,25-15.51,37.55c-0.69,1.69-0.74,3.63-1.09,5.45
				c0.44,0.16,0.87,0.31,1.31,0.47c0.79-1.45,2.27-2.9,2.26-4.34c-0.08-7.5,5.28-12.38,8.42-18.31c0.34-0.63,1.8-1.04,2.65-0.91
				c0.63,0.1,1.51,1.18,1.59,1.9c0.67,6.03,0.43,11.76-4.87,16.1c-3.9,3.2-6.57,7.26-7.82,12.31c-3.58,14.49,1.29,26.66,10.1,37.76
				c0.86,1.08,2.39,1.63,3.81,2.55c1.41-3.83,0.09-6.32-1.97-8.84c-6.65-8.11-7.04-19.67-0.99-27.5c0.63-0.82,1.79-1.3,2.79-1.7
				c0.16-0.06,1.02,1.11,1.22,1.81c2.79,9.4,4.95,18.77,3.52,28.83c-1.48,10.36,6.9,18.81,17.98,18.69
				c-3.26-6.77-9.78-12.09-8.82-20.36c0.9-7.82,5.23-13.87,10.84-19.81c0.8,2.86,1.34,5.25,2.13,7.55
				c2.78,8.13,3.41,16.23,0.78,24.59c-2.58,8.22,0.55,14.65,7.44,19.21c9.73,6.44,19.63,12.61,29.49,18.86
				c0.71,0.45,1.61,0.58,2.43,0.86c0.3-0.26,0.59-0.52,0.89-0.77C592.52,256.67,581.34,248.78,580.93,234.61z M737.58,253.16
				c0.39,0.27,0.78,0.54,1.17,0.81c3.21-2.12,6.47-4.16,9.61-6.37c6.55-4.6,11.24-10.49,13.71-18.32c1.05-3.33,2.99-7.18,5.72-9.03
				c6.12-4.15,12.99-7.19,19.88-10.85c0.22,1.32,0.37,1.87,0.39,2.43c0.02,0.7,0.04,1.43-0.12,2.11
				c-2.2,9.46-7.65,16.01-17.08,18.98c-1.46,0.46-2.97,0.82-4.34,1.47c-4.02,1.92-6.3,5.61-5.91,9.46c0.57-0.06,1.2,0.02,1.71-0.19
				c10.29-4.11,19.62-9.55,27.03-18.12c6.15-7.12,12.68-13.96,19.42-20.53c8.25-8.04,14.6-17.25,18.95-27.86
				c0.41-0.99,0.74-2.81,0.27-3.18c-0.8-0.63-2.28-0.61-3.45-0.5c-2.43,0.23-5.62,1.82-7.05,0.8c-2.01-1.43-3.56-0.87-5.18-0.62
				c-12.92,2.02-25.81,4.2-38.7,6.33c-3.92,0.65-7.75,1.48-10.91,5.01c4.38,0.74,7.95,2.22,12.38,1c9.65-2.66,19.61-3.77,29.92-2.85
				c-0.35,1.1-0.53,2.15-0.98,3.06c-5.15,10.54-19.1,15.02-29.06,8.8c-11.17-6.98-22.22-6.63-33.57-0.97
				c-20.38,10.16-35.57,25.61-46.85,45.28c-4.69,8.17-6.91,16.64-6.32,26c0.37,5.96,3.3,7.95,8.92,5.67
				c8.64-3.49,12.39-11.09,10.22-20.69c-3.33-14.73,6.6-31.1,20.29-33.6c-0.42,5.48-0.78,10.99-1.28,16.48
				c-0.79,8.63-3.6,16.28-10.59,21.99c-1.32,1.08-2.38,2.68-3.08,4.25c-0.64,1.42-0.62,3.14-0.89,4.72c1.73-0.03,3.7,0.48,5.16-0.17
				c11.68-5.19,17.61-14.64,19.72-26.98c0.8-4.69,1.78-9.5,3.67-13.82c2.55-5.84,6.06-11.26,9.23-16.99
				c8.16,8.75,7,23.35-1.87,32.34c-3.28,3.33-6.03,7.21-8.86,10.96C738.13,250.48,738,251.93,737.58,253.16z M672.69,160
				c0.56,0.25,1.13,0.51,1.69,0.76c2.5-3.06,5.52-5.84,7.4-9.24c4.01-7.24,9.96-11.78,17.51-14.58c2.21-0.82,4.33-1.89,6.58-2.58
				c1.33-0.4,3.36-0.87,4.11-0.21c0.83,0.73,0.92,2.78,0.69,4.14c-1.98,11.66-12.66,21.04-24.56,21.72
				c-8.59,0.5-15.82,7.42-16.24,15.77c-0.07,1.35,0.63,3.87,1.11,3.9c1.57,0.11,3.56-0.24,4.73-1.21c2.79-2.34,5.17-5.15,7.76-7.73
				c6.66-6.63,16.48-7.87,23.6-3.03c2.59,1.76,2.57,3.29-0.22,4.51c-5.6,2.46-11.26,4.81-16.92,7.14c-0.7,0.29-1.88,0.61-2.28,0.26
				c-3.41-2.98-6.36-0.48-8.73,1.18c-7.49,5.25-10.47,16.91-7.01,25.52c1.28,3.19,2.69,3.68,5.71,1.92
				c1.02-0.59,1.95-1.32,2.93-1.98c13.72-9.17,27.44-18.33,41.15-27.53c2.05-1.38,4.12-2.78,5.94-4.44
				c5.33-4.87,7.35-11.27,4.25-17.24c-4.65-8.98-5.19-18.22-3.72-27.84c0.17-1.12,0.73-2.72,1.55-3.07
				c0.83-0.35,2.42,0.29,3.31,0.97c7.8,5.96,10.32,16.08,6.7,26.16c-1.43,3.99-2.75,8.01-3.98,12.07c-0.36,1.2-0.24,2.55-0.33,3.82
				c0.35,0.24,0.7,0.47,1.05,0.71c2.08-1.38,4.43-2.48,6.18-4.19c4.89-4.77,7.37-10.84,8.51-17.5c0.81-4.74,0.08-9.09-2.81-13.07
				c-6.31-8.71-7.13-19.43-11.05-29.15c10.74-0.95,20.79,7.96,20.97,18.47c0.06,3.35-0.89,6.73-1.47,10.08
				c-1.01,5.79-2.15,11.56-3.09,17.36c-0.15,0.91,0.22,2.34,0.87,2.82c0.56,0.41,2.02,0.08,2.81-0.38
				c8.63-5.07,14.34-22.26,9.38-30.87c-6.99-12.14-14.82-23.8-22.47-35.55c-2.05-3.15-4.86-3.6-7.99-1.64
				c-2.53,1.58-4.8,3.56-7.18,5.37c6.42,0.14,12.77-0.95,17.33,5.25c-5.5,3.8-11.33,5.52-17.75,3.47
				c-6.67-2.13-12.46-0.79-17.13,4.19c-3.78,4.03-7.07,8.53-10.51,12.87c-0.41,0.52-0.43,1.36-0.77,2.52
				c1.05-0.51,1.71-0.64,2.07-1.04c5.81-6.34,13.35-8.59,21.59-9.03c1.39-0.07,3.21,0.21,4.08,1.08c0.56,0.56,0.04,2.63-0.5,3.79
				c-3.91,8.51-13.74,12.9-22.75,10.29c-8.33-2.41-11.34-1.52-16.18,5.65c-4.55,6.74-8.92,13.61-13,20.63
				C674.1,153.88,673.63,157.08,672.69,160z M677.83,628.19c1.54-5.38,3.03-10.8,4.65-16.18c5.7-18.96,3.17-36.9-7.23-53.57
				c-4.48-7.18-9.76-13.86-14.88-20.62c-3.27-4.32-5.43-4.36-8.85,0.02c-4.99,6.41-10.17,12.76-14.32,19.71
				c-9.81,16.4-13.12,34.16-9.07,53.02c1.71,7.96,5.77,14.81,10.39,21.46c5.3,7.62,10.09,15.59,15.82,24.53
				c4.09-4.46,7.83-8.22,11.17-12.31c2.51-3.07,4.62-6.42,10.21-6.03c-5.15-3.77-9.32-6.83-13.5-9.88
				c-2.08-1.51-2.99-3.46-2.43-6.13C667.05,620.38,671.57,626.31,677.83,628.19z M696.81,689.97c0.27,0.16,0.53,0.31,0.8,0.47
				c5.01-3.07,10.38-5.69,14.95-9.31c11.13-8.81,21.89-18.09,33.2-27.52c-1.68-2.04-2.99-3.98-4.64-5.57
				c-2.01-1.94-1.86-3.56,0.04-5.38c2.39-2.27,4.6-2.36,7.12-0.05c2.1,1.92,4.11,3.93,6.64,6.36c-0.86-5.78-0.37-7.08,2.73-11.62
				c4.44-6.52,9.29-12.86,12.91-19.82c10.87-20.88,11.45-41.57-3.08-61.23c-8.06-10.91-18.45-19.35-30.59-25.2
				c-13.35-6.43-27.12-12.01-40.74-17.88c-1.16-0.5-3.37-0.94-3.73-0.44c-0.83,1.16-1.31,3-1.07,4.42
				c1.63,9.56,6.86,16.15,16.08,19.83c9.73,3.88,19.29,8.19,28.8,12.6c8.33,3.86,15.68,9.13,21.3,16.56
				c11.61,15.35,11.81,35.96,0.51,54.06c-10.57,16.93-25.78,28.95-42.11,39.76c-3.15,2.08-6.57,1.23-9.1-1.84
				c-0.95-1.16-1.68-2.5-2.52-3.79c-0.4,0.2-0.75,0.31-1.01,0.53c-0.54,0.46-1,1.01-1.54,1.46c-6.97,5.76-11.42,14.71-22.13,16.67
				c5.28,3.76,9.92,7.18,14.67,10.41C696.66,685.06,698.41,686.7,696.81,689.97z M616.12,652.24c1.44,1.33,2.54,2.36,3.66,3.36
				c7.16,6.32,14.34,12.62,21.49,18.95c3.18,2.81,6.38,5.61,9.41,8.57c1.94,1.9,1.86,5.23-0.01,7.04c-2.11,2.03-3.82,0.62-5.53-0.79
				c-4.03-3.34-8.1-6.65-12.15-9.97c2.2,2.94,0.45,4.23-1.86,5.39c-4.74,2.37-9.45,4.8-14.2,7.16c-5.94,2.94-11.91,5.83-18.01,8.81
				c9.84,9.69,34.6,17.22,54.91,17.57c21.04,0.36,40.3-5.18,59.42-16c-1.79-1.45-3.21-2.22-4.11-3.39c-1.96-2.53-3.9-2.55-6.66-1.16
				c-6.52,3.28-13.31,6.01-19.8,9.34c-7.28,3.74-14.07,4.61-20.39-1.73c-0.32-0.32-0.78-0.52-1.2-0.74
				c-3.63-1.95-3.8-2.95-1.05-5.88c2.16-2.3,4.23-2.08,6.92-0.59c2.43,1.34,5.87,3.15,7.96,2.36c6.52-2.46,12.61-6.06,19.61-9.59
				c-8.26-3.98-15.6-7.51-22.18-10.68c-1.27,2.37-1.97,4.95-3.63,6.57c-7.25,7.08-14.78,13.88-22.21,20.77
				c-3.3,3.06-7.07,3.6-11.12,1.81c-6.25-2.76-12.47-5.58-18.66-8.47c-1.26-0.59-2.32-1.63-4.05-2.89c1.83-0.87,2.82-1.48,3.88-1.84
				c5.12-1.72,9.66-0.15,14.16,2.32c6.98,3.84,10.43,3.26,16.18-2.08c6.3-5.86,12.69-11.63,19.02-17.46
				c0.65-0.6,1.21-1.31,2.18-2.37c-2.43-2.28-4.53-4.51-6.9-6.41c-3.16-2.53-3.53-3.64-1.41-6.25c2.13-2.62,3.61-2.42,6.79,0.02
				c3.66,2.81,7.59,5.25,10.6,7.31c1.59-2.54,2.6-4.8,4.18-6.55c5.18-5.75,10.57-11.33,15.16-16.21c-5.62-2.45-12.12-5.27-18.6-8.09
				c-0.84,1.38-1.64,3.42-3.04,4.88c-8.32,8.68-16.77,17.24-25.2,25.82c-0.82,0.84-1.67,1.93-2.69,2.21
				c-1.31,0.35-3.29,0.51-4.1-0.22c-0.93-0.84-1.6-3.07-1.12-4.13c0.97-2.18,2.67-4.09,4.29-5.92c1.51-1.69,3.31-3.12,4.71-4.42
				c-3.78-3.27-7.34-6.15-10.66-9.29c-3.3-3.13-6.34-6.52-9.61-9.92C625.49,643.89,621.02,647.87,616.12,652.24z M411.76,219.63
				c0.47-3.06,1.03-5.6,1.22-8.16c0.46-6.03,2.7-10.58,9-12.38c1.91-0.54,3.73-1.47,5.48-2.43c1.13-0.62,2.06-1.62,3.86-3.08
				c-1.99-0.22-2.93-0.56-3.75-0.37c-7.33,1.71-14.68,3.4-21.94,5.39c-1.15,0.32-2.54,2.01-2.72,3.23
				c-1.59,10.37,5.46,23.51,15.26,27.65c11.92,5.04,24.14,9.37,36.09,14.35c3.97,1.66,7.18,1.31,10.64-1.29
				c-2.49-3.99-5.83-6.72-10.51-7.58c-9.26-1.7-14.73-7.31-17.07-16.25c-0.86-3.29-1.74-6.57-2.67-9.83
				c-0.73-2.55,0.23-3.56,2.8-3.34c7.84,0.69,16.71,9.08,17.83,16.9c1.57,10.95,12.51,19.77,23.62,19.04
				c0.16-0.01,0.3-0.29,0.89-0.87c-1.14-1.56-2.04-3.62-3.6-4.78c-8.97-6.69-13.19-15.38-12.17-26.63c0.21-2.3-0.37-4.67-0.64-7.51
				c5.36,1.06,8.46,3.95,10.87,7.68c3.11,4.8,3.47,10.19,2.89,15.68c-0.59,5.65,1.64,9.72,6.33,12.83c7.74,5.13,15.84,4.39,24.1,1.9
				c2.2-0.66,2.99-2.13,1.9-4.37c-1.8-3.7-2.99-7.86-5.47-11.02c-2.59-3.3-6.03-7.27-9.73-8.08c-7.4-1.63-12.65-5.35-16.87-11.18
				c-1.18-1.63-2.26-3.34-3.47-5.15c9.37-3.09,17.73,0.63,21.37,8.84c0.63,1.43,1.93,2.56,3.5,4.57c0.35-1.82,0.59-2.47,0.59-3.12
				c-0.03-9.28-9.1-19.7-18.4-19.79c-12.22-0.13-24.46,0.61-36.67,1.36c-7.87,0.48-13.67,4.85-16.48,12.08
				C424.85,211.54,419.14,215.9,411.76,219.63z M824.48,552.11c4.74-1.78,8.08-1.43,11.02,1.52c4.99,5.02,7.55,11.01,7.31,18.13
				c-0.19,5.71-2.37,7.93-7.99,8.09c-14.71,0.43-25.65-11.78-23.32-26.28c0.67-4.15,2.11-8.18,3.17-12.27
				c0.85-3.26-0.52-5.32-3.69-6.03c-2.4-0.53-4.87-0.89-7.33-1.01c-8.78-0.44-17.57-0.74-26.46-1.1c0.65,5.79,3.28,9.46,8.57,11.35
				c5.78,2.06,11.6,2.99,17.69,1.97c2.81-0.47,5.23-0.18,5.93,3.51c-1.11,0.92-2.18,2.04-3.46,2.83c-2.8,1.72-5.57,3.6-8.59,4.84
				c-7.07,2.92-7.38,8.08-4.6,13.47c1.46,2.84,3.57,5.9,6.21,7.46c3.96,2.34,8.54,3.91,13.05,5.01c15.65,3.81,31.38,2.29,47.04-0.12
				c4.74-0.73,6.59-2.8,7.24-7.81c1.59-12.33,5.38-23.86,12.08-34.37c1.9-2.98,4.07-5.78,6.14-8.64c2.42-3.33,1.73-5.36-2.22-5.62
				c-4.58-0.3-9.21-0.54-13.77-0.13c-6.38,0.57-11.77,3.32-16.21,9.56c5.1-1.22,8.34,0.2,10.55,3.82
				c3.12,5.11,4.63,10.54,3.21,16.53c-1.2,5.07-4.66,6.94-9.53,5.07c-5.94-2.27-9.46-6.8-11.51-12.62
				c-0.94-2.66-1.69-5.38-2.64-8.04c-0.74-2.06-2.32-3.24-4.43-2.28c-7.72,3.55-13.8,8.93-17.59,16.66
				c-0.35,0.7-0.36,1.61-0.39,2.42c-0.32,6.84,5.75,13.69,12.74,14.14c0.67,0.04,2.2-1.76,2.03-2.18
				c-1.51-3.82-3.13-7.63-5.11-11.22C828.38,556.52,826.46,554.63,824.48,552.11z M571.78,635.22c-3.8,1.14-6.6,0.57-8.49-2.19
				c-4.06-5.92-8.47-11.68-11.91-17.95c-12.04-21.94-5.99-46.23,15.12-59.55c8.32-5.25,17.46-9.22,26.3-13.65
				c5.78-2.9,11.85-5.26,17.46-8.44c6.7-3.79,10.2-9.92,10.77-17.64c0.28-3.86-0.68-4.53-4.16-3.01c-3.24,1.41-6.57,2.62-9.73,4.18
				c-14.87,7.33-30.2,13.9-44.42,22.34c-19.02,11.28-29.62,28.53-29.22,51.15c0.3,17.16,7.8,31.82,18.14,45.1
				c3.2,4.11,6.87,7.87,10.32,11.79c0.31-0.05,0.62-0.1,0.93-0.16C562.21,640.7,568.05,639.23,571.78,635.22z M629.07,637.77
				c-0.2-0.94-0.19-1.2-0.31-1.38c-0.52-0.79-1.06-1.56-1.61-2.32c-11.6-16.01-19.83-33.62-24.86-52.72
				c-1.23-4.66-2.06-9.42-3.09-14.13c-0.82-3.74-2.52-5.37-5.38-4.61c-8.2,2.18-16.33,4.59-23.22,9.92
				c-10.14,7.83-14.79,18.03-12.24,30.69c2.3,11.37,9.63,20.52,14.6,31.17c3.66-2.61,6.87-4.91,10.29-7.36
				c-2.16-3.79-4.25-7.31-6.21-10.91c-5.98-10.98-4.73-25.53,2.94-34.94c3.86-4.74,6.77-4.99,10.49-0.1
				c8.77,11.52,10.68,24.3,6,38.02c-0.79,2.32-1.93,4.36-5.25,3.39c6.05,7.87,11.82,15.36,17.81,23.14c3.03-2.01,6.5-4.03,9.63-6.47
				C621.77,636.72,624.79,635.19,629.07,637.77z M734.73,634.84c7.32-6.21,13.05-13.97,16.67-23.21c5.75-14.68,2.57-28.46-8.59-37.9
				c-6.64-5.61-14.46-8.8-22.82-10.69c-4.59-1.04-6.74,0.58-7.54,5.51c-3.46,21.12-11.38,40.51-22.78,58.52
				c-1.33,2.1-3.38,3.73-4.89,5.35c4.79,4,10.05,8.39,15.91,13.28c3.8-3.99,8.41-8.65,12.79-13.51c2.03-2.24,3.89-4.12,7.82-1.64
				c-1.8-3.47-3.18-6.02-4.47-8.62c-7.33-14.65-5.31-28.28,4.61-40.96c3.48-4.45,6.41-4.57,10.18-0.42
				c6.08,6.68,8.25,14.66,7.36,23.53c-0.64,6.39-3.18,12-7.26,16.97c-1.88,2.29-3.12,4.69-0.78,7.61
				C732.35,630.41,733.32,632.51,734.73,634.84z M836.27,119.68c0.29-0.35,0.59-0.7,0.88-1.06c-9.91-0.59-19.83-1.65-29.74-1.61
				c-6.18,0.03-11.45,3.4-15.34,8.39c-4.79,6.15-6.85,13.35-7.47,20.97c-0.31,3.74,1.48,5.93,5.07,7.06
				c7.15,2.25,13.4-1.1,15.42-8.32c0.38-1.36,0.56-2.77,0.93-4.13c2.43-8.85,8.71-14.37,16.17-19.09
				c4.04,11.39-0.53,22.52-10.99,27.75c-1.66,0.83-2.96,2.37-4.42,3.58c0.12,0.3,0.23,0.61,0.35,0.91c2.99,0.39,6.02,0.58,8.95,1.23
				c5.81,1.29,13.4-1.15,15.95,7.66c0.57-1.27,0.89-2.25,0.93-3.24c0.48-11.29,0.84-22.58,1.45-33.87
				C834.52,123.81,835.62,121.76,836.27,119.68z M738.03,68.8c-2.05,0.63-3.53,0.99-4.93,1.54c-3.13,1.23-5.67,0.92-8.27-1.64
				c-3.09-3.04-6.82-5.42-10.12-8.27c-3.13-2.71-6.04-2.73-9.61-0.67c-9.67,5.58-19.3,5.12-28.66-0.98
				c-0.99-0.64-1.94-1.34-2.94-1.95c-4.14-2.51-5.13-2.18-7.7,3.04c0.58,0.4,1.45,0.84,2.13,1.48c6.89,6.58,13.89,13.07,20.57,19.86
				c3.89,3.96,8.03,4.67,13.16,3.09c16.74-5.15,33.52-10.19,50.33-15.11c3.59-1.05,7.37-1.44,11.07-2.13
				c-3.83-3.64-7.02-8.93-14.11-10.34c2.53,2.94,4.64,5.38,6.78,7.86c-2.15,2.06-4.2,2.41-6.67,1.33c-3.23-1.41-6.55-2.63-9.83-3.93
				c-2.89-1.15-5.79-2.3-8.68-3.45c-0.16,0.25-0.31,0.49-0.47,0.74C732.61,62.33,735.15,65.36,738.03,68.8z M378.3,251.46
				c3.16-2.27,5.97-4.85,9.25-6.52c6.73-3.44,11.86-1.19,14.6,5.89c3.09,7.97,0.58,17.56-6.31,23.81c-1.89,1.71-3.95,3.22-6.22,5.06
				c5.5,2.1,9.5-0.11,13.29-3.18c6.86-5.57,13.67-11.19,20.58-16.69c4.2-3.35,4.18-4.76-0.42-7.82c-6.87-4.56-13.99-8.81-20.54-13.8
				c-10.66-8.11-21.83-8.97-33.93-3.99c-10.48,4.32-15.49,14.48-12.24,25.75c3.13-0.93,6.23-2.05,9.41-2.74
				c2.63-0.58,3.05-2.01,2.63-4.32c-0.74-4.05-1.61-8.11-1.87-12.2c-0.09-1.49,1.05-3.68,2.31-4.47c1.8-1.13,3.92-0.43,4.97,1.81
				c0.6,1.27,1.2,2.56,1.63,3.9C376.46,245.17,377.39,248.43,378.3,251.46z M565.43,650.51c3.3,3.5,6.1,7,9.43,9.89
				c8.91,7.72,18.33,14.88,26.99,22.87c4.66,4.3,8.49,5.31,13.93,1.7c4.43-2.93,9.46-4.97,14.29-7.44
				c-6.59-7.46-12.86-14.55-19.24-21.78c-1.27,0.87-2.7,1.89-4.16,2.87c-5.86,3.96-8.07,4.05-13.72-0.04
				c-4.11-2.97-7.94-6.3-12.03-9.3c-2.32-1.7-4.38-3.31-2-7.56C573.83,645.05,569.9,647.6,565.43,650.51z M654.74,71.46
				c0.61,0.78,0.81,0.94,0.88,1.14c2.24,7.47,0.64,13.78-5.09,19.29c-6.93,6.65-6.38,18.11,0.82,23.72
				c4.36,3.41,8.08,2.66,10.82-2.12c1.78-3.12,1.12-5.98-1.11-8.45c-4.99-5.53-4.48-11.58-1.78-17.78c1.56-3.57,3.42-3.69,5.42-0.39
				c2.98,4.93,3.77,10.31,2.9,16c-0.32,2.11-0.41,4.25-0.69,7.4c2.2-1.9,3.57-2.98,4.82-4.17c4.1-3.9,5.75-8.5,3.91-14.06
				c-3.24-9.82-9.82-17.64-15.69-25.85c-1.75-2.45-4.58-2.48-6.85-0.37c-4.31,4-8.69,7.95-12.58,12.34
				c-1.96,2.21-3.2,5.21-4.26,8.04c-2.23,5.96-0.95,11.23,4.48,16.16c0.8-3.08,2.24-5.79,2.04-8.36
				C641.97,83.82,648.12,77.76,654.74,71.46z M937.9,251.13c-1.09-7.34-2.13-14.38-3.17-21.37c-1.53,0.76-2.85,1.51-4.24,2.08
				c-12.64,5.16-25.3,10.24-37.91,15.46c-2.14,0.89-4.31,2.03-6.03,3.55c-2.96,2.61-2.99,5.75,0.04,8.18
				c7.17,5.74,14.48,11.3,21.87,16.76c3.16,2.33,6.77,1.31,10.34,0.64c-5.78-3.92-9.09-9.18-9.82-15.86
				c-0.63-5.81,0.21-11.59,5.09-15.4c4.53-3.53,9.17-0.89,13.57,1.19C931.03,247.96,934.43,249.52,937.9,251.13z M583.12,75.55
				c4.48,1.19,9.01,2.12,13.35,3.62c4.43,1.54,8.67,3.65,13,5.48c4.83,2.05,7.1,1.58,10.65-2.3c1.83-2,3.37-4.29,5.34-6.11
				c5.44-5.01,11.11-9.79,16.55-14.81c1.04-0.96,2.38-3.27,2-3.77c-1.33-1.79-3.36-3.07-5.12-4.54c-0.29,0.18-0.57,0.36-0.86,0.54
				c0.45,4.72-2.86,6.2-6.18,7.53c-6.69,2.68-13.99,3.64-20.27,0.46c-6.88-3.49-11.2-1.58-15.97,3.2
				C591.59,68.86,586.97,72.29,583.12,75.55z M965.07,352.46c1.6,2,3.03,3.7,4.37,5.47c7.72,10.21,10.9,21.6,6.78,33.89
				c-1.77,5.27-5.87,9.76-8.82,14.65c-0.6,0.99-1.46,2.57-1.08,3.27c1.86,3.45,4.1,6.69,6.28,10.12
				c20.49-22.26,16.85-57.17,1.31-75.15C971,347.25,968.11,349.79,965.07,352.46z M345.93,411.51c-0.67-0.92-1.56-2.14-2.46-3.36
				c-0.91-1.23-1.88-2.42-2.74-3.69c-8.99-13.18-10.32-26.73-2.05-40.8c1.25-2.12,2.36-4.37,3.16-6.69
				c1.63-4.71,0.38-8.75-3.51-12.06c-0.42,0.36-0.92,0.67-1.27,1.11c-1.04,1.28-2.13,2.54-3.02,3.92
				c-10.38,16.01-11.92,33.21-6.33,51.11c1.59,5.1,4.3,9.91,6.91,14.63c1.7,3.07,3.5,3.13,5.62,1.11
				C342.05,415.05,343.91,413.37,345.93,411.51z M956.83,410.69c-1.85-3.65-3.54-6.88-5.14-10.16c-3.65-7.51-5.06-15.52-3.78-23.7
				c1.19-7.67,2.8-15.43,10.56-20.07c-3.23-3.54-6.21-6.8-10.04-11c-2.67,5.84-5.49,10.73-7.2,15.99
				c-6.16,18.91-0.88,36.87,5.2,55.13C949.95,414.79,953.25,412.83,956.83,410.69z M441.1,150.96c-0.61,2.05-0.82,4.14-1.81,5.76
				c-1.77,2.9-4.02,5.51-6.03,8.26c-3.92,5.35-3.96,3.28,0.26,8.92c3.46,4.62,8.06,5.25,13.24,4.06c4.99-1.14,8.82-3.87,9.6-9.11
				c0.84-5.66,0.99-11.43,1.26-17.17c0.03-0.68-1.03-1.96-1.71-2.05c-4.88-0.65-9.78-1.11-14.68-1.55
				c-2.91-0.26-5.83-0.37-9.11-0.57c-0.44,2.39-1.04,5.66-1.64,8.93C433.32,153.51,435.77,150.53,441.1,150.96z M354.83,354.37
				c0.36,0.65,0.67,1.25,1.02,1.83c9.54,15.26,11.41,30.84,2.47,47.14c-2.92,5.33-2.16,7.43,2.58,11.52c0.76,0.66,1.37,1.5,2.18,2.4
				c7.39-11.66,10.49-24.22,9.82-37.8c-0.45-9.03-2.58-17.68-5.81-26.08c-1.57-4.08-2.78-4.43-6.64-2.25
				C358.61,352.16,356.8,353.23,354.83,354.37z M768.42,72.44c-6.2,2.66-11.52,4.95-16.96,7.28c6.08,6.46,12.09,12.89,18.14,19.28
				c1.7,1.79,3.24,3.93,5.32,5.1c1.83,1.03,4.93,1.92,6.3,1.04c1.38-0.88,2.21-4.26,1.71-6.12c-1.35-5.07-3.25-10.06-5.47-14.83
				C775.25,79.4,772.14,75.12,768.42,72.44z M964.02,406.7c1.64-4.46,3.2-8.66,4.73-12.87c0.44-1.22,0.87-2.44,1.23-3.68
				c3.12-10.96-1.01-24.42-9.1-30.4C952.43,376.09,950.94,392.07,964.02,406.7z M954.18,263.66c-6.52,1.75-10.81-1.32-15.37-3.4
				c-5.56-2.54-11.1-5.15-16.72-7.56c-0.88-0.38-2.93-0.2-3.09,0.22c-0.99,2.65-2.8,5.81-2.08,8.1c1.35,4.32,4.22,8.17,6.72,12.7
				c2.68-3.81,4.64-7.06,7.1-9.86c1.05-1.19,3.16-1.44,4.79-2.11c0.45,1.93,1.17,3.85,1.25,5.8c0.05,1.17-0.87,2.4-1.43,3.57
				c-1.1,2.3-2.25,4.57-3.57,7.23c4.28,1.05,8.12,2.18,12.04,2.83c1.17,0.19,3.3-0.64,3.75-1.58
				C949.88,274.71,951.76,269.65,954.18,263.66z M357.59,501.66c0.14,0.27,0.28,0.54,0.42,0.81c4.14-3.38,7.81-1.6,11.57,0.29
				c5.89,2.96,11.92,5.65,17.79,8.65c2.28,1.17,4.28,2.89,6.65,4.52c0-3.94-0.26-8.14,0.06-12.31c0.4-5.25-2.32-8.27-6.8-10.92
				c-1.59,3.03-2.83,6.12-4.74,8.74c-1.05,1.45-3.49,3.19-4.79,2.85c-2.19-0.57-2.56-3.03-1.55-5.33c0.95-2.15,1.81-4.35,2.63-6.55
				c0.86-2.31,0.4-4.15-2.04-5.23c-2.91-1.28-5.72-2.84-8.72-3.82c-1.1-0.36-3.48,0.22-3.81,0.99
				C361.82,490.04,359.76,495.87,357.59,501.66z M394.46,550.24c0.06,11.06,9.6,24.14,20.3,27.81c0.77,0.27,1.59,0.66,2.36,0.61
				c2.04-0.12,3.88-0.85,3.48-3.37c-2.04-12.83-8.18-22.95-19.92-29.07C396.15,543.85,394.43,545.14,394.46,550.24z M349.1,403.4
				c9.81-9.42,9.41-27.85-0.62-42.82c-3.07,6.56-6.09,12.9-8.98,19.3c-0.33,0.72-0.09,1.84,0.18,2.68c1.63,4.9,3.16,9.86,5.14,14.63
				C345.76,399.42,347.61,401.28,349.1,403.4z M929.29,509.8c0.83,6.36,0.38,7.1-4.56,9.07c-5.96,2.37-6.95,4.83-4.25,10.6
				c0.3,0.64,0.46,1.5,0.96,1.86c1.51,1.06,3.44,2.99,4.69,2.66c3.27-0.87,6.28-2.73,9.32-4.33c0.25-0.13,0.05-1.34-0.12-2.01
				c-2.27-9.12-4.44-18.27-6.93-27.33c-0.78-2.82-2.44-5.4-3.75-8.22c-5.94,4.81-10.19,9.96-10.25,17.45
				c-0.01,1.44,0.11,3.45,0.99,4.16c0.8,0.64,2.81,0.1,4.16-0.33C922.71,512.37,925.79,511.11,929.29,509.8z M484.82,653.24
				c0.7-4.98,3.66-6.51,6.96-7.74c7.88-2.94,13.35-8.48,15.93-16.37c0.94-2.87,0.13-6.31,0.13-9.49c-3.08,0.42-6.47,0.15-9.17,1.39
				c-8.06,3.72-12.19,10.77-14.28,19.11C483.39,644.12,483.01,648.18,484.82,653.24z M474.45,106.96
				c-16.77-3.07-42.31,19.5-40.57,35.19c2.48-0.66,4.93-1.3,7.9-2.09c-3.07-1.74-2.19-3.67-1.02-5.59
				c5.67-9.37,13.52-16.2,23.67-20.38c2.78-1.14,5.31-1.61,6.79,2.55C472.25,113.52,473.3,110.4,474.45,106.96z M939.61,458.54
				c2.41,2.73,4.6,5.13,6.68,7.63c0.82,0.98,1.17,2.5,2.14,3.18c1.17,0.82,3.25,1.83,4.13,1.33c4.68-2.68,9.11-5.81,12.92-8.31
				c-4.29-5.27-8.13-9.99-12.06-14.83C948.58,451.4,943.75,455.25,939.61,458.54z M972.22,302.62c-3.79,5.33-7.56,10.57-11.24,15.87
				c-0.31,0.45-0.35,1.46-0.06,1.89c3.32,4.78,6.73,9.49,10.25,14.41c6.2-7.01,8.24-14.18,4.46-22.55
				C974.3,309.3,973.45,306.16,972.22,302.62z M953.53,496.92c-2.89-5.47-5.56-10.53-8.33-15.77c-2.69,1.45-5.1,2.67-7.43,4.02
				c-6.63,3.84-7.34,6.95-3.13,13.44c0.51,0.78,1.13,1.5,1.73,2.22c2.12,2.56,4.72,2.99,7.58,1.48
				C947.05,500.67,950.07,498.87,953.53,496.92z M355.97,448.59c-2.96,5.17-5.67,9.92-8.45,14.77c2.6,1.79,4.87,3.45,7.24,4.95
				c6.04,3.84,8.58,3.21,12.2-2.93c0.3-0.5,0.56-1.03,0.82-1.56c1.98-4.18,1.7-6.03-1.98-8.79
				C362.81,452.8,359.55,450.92,355.97,448.59z M360.92,291.14c-3.94,3.37-7.61,6.45-11.17,9.66c-0.54,0.49-0.98,1.82-0.7,2.36
				c2.26,4.29,4.7,8.49,7.19,12.9c5.71-4.15,10.8-7.85,16.26-11.82c-4.43-0.74-4.34-0.79-6.3-4.36
				C364.63,297.02,362.83,294.28,360.92,291.14z M357.65,267.86c3.17,5.22,6.09,10.03,9.11,15c4.45-2.44,8.83-4.85,13.49-7.41
				c-3.7-6.18-7.13-11.89-10.55-17.6C369,265.89,360.36,264.24,357.65,267.86z M947.86,292.94c-2.26,5.18-4.37,10.02-6.7,15.37
				c7.28-0.99,10.55,4.93,16,7.53c1.7-4.27,3.53-8.21,4.75-12.32c0.37-1.25-0.44-3.76-1.49-4.38
				C956.52,296.83,952.29,295.07,947.86,292.94z M357.34,503.39c-3.06,6.45-2.09,13.75,3.13,19.04c2.72,2.76,5.85,5.12,8.91,7.77
				c1.23-5.03,2.55-9.89,3.52-14.82c0.19-0.94-0.67-2.58-1.54-3.16C366.83,509.18,362.14,506.38,357.34,503.39z M973.89,431.25
				c-3.7,3.51-7.16,6.67-10.46,9.99c-1.96,1.97-2.09,4.23-0.55,6.71c2.18,3.5,4.14,7.14,6.19,10.72
				C978.34,452.18,980.16,442.89,973.89,431.25z M334.15,321.34c0.14,1.04,0.23,2.57,0.56,4.05c1.57,7.05,3.43,7.67,8.91,3.04
				c5.37-4.53,6.16-7.94,3.18-14.22c-1.01-2.12-2.23-4.13-3.32-6.21c-1.3-2.46-2.81-2.51-4.61-0.5
				C335.45,311.3,334.48,315.94,334.15,321.34z M954.59,504.57c-3.86,1.58-7.77,3.16-11.66,4.78c-2.09,0.87-3.05,2.41-2.77,4.75
				c0.46,3.86,0.78,7.73,1.24,11.59c0.09,0.78,0.55,1.53,0.75,2.05c7.53-1.82,10.7-7.3,13.63-13.32
				C957.5,510.89,957.65,508.05,954.59,504.57z M939.82,311.81c-5.68,5.86-5.03,17.52,2.59,23.55c1.49,1.18,2.82,1.16,3.88-0.48
				c2.34-3.63,4.61-7.31,6.91-10.98c-4.25-3.96-8.37-7.8-12.51-11.63C940.45,312.05,940.09,311.95,939.82,311.81z M945.81,426.87
				c-8.33,4.37-12.49,16.43-8.65,24.53c5-2.49,9.99-4.97,15.15-7.54C950.08,438.01,947.99,432.56,945.81,426.87z M338.24,431.99
				c-1.69,3.9-3.21,6.47-3.93,9.24c-1.65,6.36,2.83,11.04,5.14,16.28c0.15,0.33,2.58,0.31,2.97-0.24c2.22-3.16,4.39-6.42,6.04-9.89
				c0.62-1.3,0.39-3.76-0.49-4.87C345.25,439.07,342.03,436.01,338.24,431.99z M352.55,351.79c2.53-3.49,4.9-6.55,7-9.78
				c0.53-0.82,0.66-2.37,0.24-3.24c-1.32-2.74-2.92-5.37-4.55-7.95c-1.14-1.8-2.92-2.33-4.45-0.71c-2.81,2.98-5.44,6.15-7.96,9.39
				c-0.42,0.54-0.28,2.13,0.22,2.67C346.08,345.43,349.29,348.53,352.55,351.79z M970.95,422.12c-6.33,0.53-7.03-5.1-10.56-7.7
				c-3.7,3.41-7.39,6.8-11.29,10.4c2.37,3.19,4.44,6.18,6.75,8.97c1.07,1.29,2.64,2.93,4.4,0.95
				C963.74,430.81,967.06,426.73,970.95,422.12z M374.9,302.48c12.31-6.94,15.56-13.28,10.51-21.22c-4.16,1.87-8.45,3.67-12.62,5.71
				c-2.52,1.23-3.02,3.39-1.92,5.95C372.21,296.03,373.5,299.16,374.9,302.48z M727.04,589.96c-0.52,0.39-1.1,0.75-1.59,1.21
				c-0.52,0.47-1.06,0.97-1.41,1.57c-4.5,7.75-4.79,15.77-1.33,23.95c0.31,0.72,1.32,1.67,1.92,1.61c0.71-0.07,1.59-0.99,1.93-1.75
				c1.59-3.52,3.04-7.1,4.48-10.69C732.74,601.64,730.65,593.25,727.04,589.96z M343.81,293.87c4.68-2.02,9.1-3.86,13.45-5.88
				c0.6-0.28,1.33-1.56,1.14-2.08c-1.8-5.12-3.79-10.18-5.74-15.3C344.85,274.84,341.62,283.36,343.81,293.87z M373.97,451.62
				c0.88-4.36,2.57-7.69,1.84-10.35c-1.09-3.95-3.75-7.53-6.03-11.08c-1.1-1.72-3.1-2.66-4.5-0.26c-1.83,3.12-3.45,6.4-4.77,9.75
				c-0.39,0.98,0.09,3.05,0.89,3.64C365.12,446.07,369.1,448.46,373.97,451.62z M962.24,349.01c2.05-3.56,4.16-7.09,6.09-10.7
				c0.32-0.6,0.2-1.98-0.25-2.35c-3.5-2.9-7.12-5.64-10.97-8.64c-0.86,2.02-1.58,3.5-2.13,5.03c-1.27,3.57-4.26,7.93-3.17,10.56
				c1.18,2.85,6.21,4.1,9.57,6.04C961.47,349,961.61,348.97,962.24,349.01z M606.18,647.27c-5.93,0.51-7.84-4.55-11.05-7.75
				c-3.28-3.27-6.37-6.73-9.73-10.31c-0.45,2.69-0.36,4.94-1.25,6.69c-0.94,1.85-2.83,3.22-4.3,4.8c5.35,3.29,10.35,6.33,15.32,9.41
				C599.83,652.99,602.66,652.31,606.18,647.27z M372.53,313.72c-3.72,2.27-7.38,4.37-10.87,6.72c-0.75,0.5-1.51,2.13-1.23,2.81
				c1.8,4.36,3.9,8.59,5.96,13.02C374.51,330.16,379.13,321.72,372.53,313.72z M589.41,620.39c0.29-1.19,0.67-1.97,0.63-2.73
				c-0.47-7.86-0.86-15.72-1.65-23.55c-0.15-1.52-1.95-2.88-3.02-4.36C577.18,597.56,579.11,611.57,589.41,620.39z M925.1,483.65
				c5.47-2.42,9.91-4.29,14.26-6.35c2.32-1.1,3.28-2.95,2.02-5.52c-1.03-2.11-1.95-4.28-2.95-6.41c-2.13-4.5-3.48-4.75-6.92-1.12
				c-1.03,1.09-2.05,2.41-2.45,3.81C927.66,472.88,926.56,477.77,925.1,483.65z M959.96,269.83c-1.93,4.47-3.98,8.67-5.5,13.05
				c-0.42,1.19,0.25,3.59,1.23,4.29c3.47,2.46,7.29,4.43,11.08,6.63C969.94,286.17,967.01,276.1,959.96,269.83z M349.09,415.46
				c-1.82,2.79-3.63,5.01-4.77,7.53c-0.61,1.33-0.68,3.65,0.1,4.72c1.77,2.43,4.16,4.42,6.42,6.47c1.62,1.47,3.35,1.29,4.41-0.67
				c1.98-3.67,3.78-7.44,5.78-11.42C356.72,419.7,352.96,417.61,349.09,415.46z M423.14,173.48c-5.68,0.3-11.1,0.58-17.03,0.9
				c-1.22,4.28-2.66,9.33-4.06,14.22C415.06,187.22,422.32,182.15,423.14,173.48z M929.49,280.77c-5.21,4.57-5.29,7.5-0.15,12.94
				c2.31,2.44,4.23,5.26,6.19,7.75c2.97-3.3,6.26-6.96,9.5-10.56C940.01,287.63,934.98,284.35,929.49,280.77z M345.52,470.66
				c-4.16,4.59-2.33,16.07,6.15,22.27c2.19-4.18,4.44-8.26,6.42-12.46c0.3-0.63-0.35-2.27-1.04-2.72
				C353.35,475.29,349.5,473.07,345.52,470.66z M379.58,255.9c1.44,4.68,2.6,9.11,4.24,13.34c0.49,1.26,3.22,2.99,3.46,2.78
				c2.4-2.05,5.59-4.12,6.4-6.84c1.09-3.62,0.27-7.82,0.27-12.47C388.94,253.83,384.45,254.82,379.58,255.9z M959.92,493.51
				c2.52-3.97,5.07-7.27,6.78-10.95c1.23-2.64,1.69-5.79,1.83-8.74c0.12-2.38-1.4-3.84-3.98-2.38c-3.38,1.9-6.76,3.83-9.96,6.02
				c-0.72,0.49-1.26,2.34-0.91,3.14C955.49,484.79,957.62,488.84,959.92,493.51z M829.89,109.94c-0.67-3.54-2.33-4.51-5.09-3.99
				c-9.51,1.79-16.45-2.14-21.49-9.99c-1.39-2.16-2.58-4.44-3.89-6.71c-6.89,6.61-6.43,14.01,1.45,15.94
				C810.36,107.53,820.2,108.42,829.89,109.94z M376.92,460.78c-1.05,1.5-1.95,2.71-2.77,3.99c-6.09,9.55-5.94,10.35,3.98,15.58
				c1.5,0.79,4.3,1.52,5.03,0.8c1.18-1.17,1.86-3.72,1.49-5.42C383.48,470.31,381.66,465.06,376.92,460.78z M722.23,631.67
				c-2.34,3.33-4.46,6.55-6.8,9.6c-2.37,3.1-4.96,6.03-7.57,9.17c3.76,1.95,6.72,1.21,9.44-0.8c1.98-1.46,3.81-3.14,5.72-4.7
				c2.86-2.33,5.74-4.63,8.86-7.15C728.32,635.53,725.26,633.59,722.23,631.67z M469.13,119.53c-7.99,2.65-21.06,13.39-23.76,19.39
				C457.03,139.31,468.59,130.01,469.13,119.53z M507.53,90.32c-11.37-4.59-14.8-1.87-24.78,8.99c1.41,0.35,2.67,1.1,3.71,0.85
				c3.6-0.85,7.32-1.63,10.63-3.2C500.71,95.23,503.93,92.65,507.53,90.32z M806.23,84c-0.33,5.86,2.76,9.01,6.21,11.67
				c3.74,2.88,7.72,5.87,13.76,2.71c-1.63-2.27-2.67-4.91-4.6-6.14C816.98,89.29,811.94,87,806.23,84z M798.5,86.72
				c-0.93-8.42-8.02-14.92-20.01-13.14c3.34,4.63,6.12,9.4,12.03,10.91C793.3,85.19,796.05,86.03,798.5,86.72z M408.19,167.26
				c0.3,0.29,0.6,0.59,0.9,0.88c4.81-1.68,9.62-3.36,14.9-5.21c-4.78-4.62-1.36-9.95-2.06-14.78c-0.4-0.18-0.8-0.35-1.21-0.53
				C416.55,154.16,412.37,160.71,408.19,167.26z M426.13,588.15c0.72,3.2,1.13,5.39,1.73,7.54c1.03,3.69,3.75,4.95,7.29,3.5
				c3.32-1.37,5.43-6.13,4.04-9.54c-0.33-0.81-1.45-1.81-2.22-1.83C433.51,587.73,430.04,587.99,426.13,588.15z M678.6,50.11
				c4.48,6.93,14.78,7.95,22.29,2.59C694.28,45.85,686.65,47.92,678.6,50.11z M534.58,653.53c-8.91,3.22-11.59,13.18-6.18,20.57
				c1.27-2.4,2.25-5.33,4.09-7.53C535.84,662.58,536.76,658.74,534.58,653.53z M612.21,52.18c7.88,5.26,13.41,4.78,20.21-1.64
				c-2.99-1.32-5.83-2.68-8.75-3.81c-0.73-0.28-1.87-0.1-2.59,0.29C618.19,48.58,615.39,50.31,612.21,52.18z M668.31,51.66
				c-2.82-6.06-12.23-8.04-19.52-3.7c4.42,6.22,5.97,6.63,12.8,4.34C663.63,51.62,665.98,51.85,668.31,51.66z M452.83,554.19
				c7.9-2.55,10.96-10.25,6.46-16.47C455.64,542.66,451.24,547.05,452.83,554.19z M852.69,536.47c-3.89,8.41-0.62,16.75,6.76,17.83
				C861.04,546.89,854.67,542.89,852.69,536.47z M570.25,688.82c-2.03,3.91-2.81,7.21-0.68,9.61c2.53,2.85,6.2,1.2,10.55,1.11
				C576.48,695.59,573.61,692.47,570.25,688.82z M723.94,53.21c5.61,3.16,10.65,3.94,15.84,0.39C734.63,51,729.6,51.28,723.94,53.21
				z"/>
			<path class="st0" d="M832.6,647.86c4.74,1.68,8.85,1,12.85-0.57c4.87-1.92,8.93-5.05,11.26-9.75c1.8-3.63,4.61-4.69,9.2-4.98
				c-0.56,2.62-0.55,5.15-1.6,7.11c-5.87,10.92-15.33,16.27-27.56,16.84c-23.27,1.09-44.29-18.33-44.19-40.73
				c0.02-5.07,1.42-6.43,6.58-6.41c18.25,0.08,34.19,13.98,36.74,31.99C836.27,644.1,836.07,646.49,832.6,647.86z M829.48,647.1
				c-0.96-3.79-1.56-7.26-2.71-10.53c-3.16-9.05-9.17-15.28-18.72-17.48c-4.44-1.03-6.65,1-5.43,5.32c1.1,3.89,2.55,7.95,4.88,11.18
				C812.67,642.77,819.86,646.83,829.48,647.1z"/>
			<path class="st0" d="M442.3,626.23c0.88-4.28,1.33-7.8,2.34-11.16c2.79-9.24,10.39-14.85,20.01-15.06
				c4.66-0.1,7.07,2.58,6.68,7.46c-0.85,10.39-5.93,17.77-15.82,21.34c-3.25,1.17-3.41,2.69-2.3,5.49
				c2.84,7.14,8.31,11.21,15.27,13.69c1.33,0.47,2.85,0.69,3.92,1.5c0.96,0.74,2.06,2.21,1.92,3.21c-0.14,1.05-1.56,2.54-2.61,2.72
				c-2.01,0.33-4.27,0.25-6.22-0.33c-9.89-2.95-15.99-10.01-19.86-19.21C444.25,632.57,443.28,629.09,442.3,626.23z M451.07,625.18
				c2.12-1.85,4.31-3.74,6.46-5.67c0.96-0.85,2.06-1.65,2.73-2.7c1.5-2.37,4.32-4.75,1.92-7.8c-1.42-1.81-6.6,0.28-8.79,3.42
				C450.53,616.54,450.13,621.11,451.07,625.18z"/>
			<path class="st0" d="M864.64,622.46c4.61,1.5,8.36,0.09,11.63-2.62c1.77-1.47,3.48-3.3,4.5-5.34c1.8-3.62,4.52-4.81,8.61-4.45
				c0.43,6.51-2.68,11.47-7.22,15.3c-8.6,7.25-18.45,6.36-27.96,2.35c-9.08-3.83-13.4-11.49-13.91-21.22
				c-0.22-4.09,1.85-6.22,5.78-6.49c9.71-0.65,19.65,6.6,21.97,16.01C868.83,619.28,868.21,620.54,864.64,622.46z M861.66,621.79
				c-3.74-10.32-7.32-14.01-12.35-12.86C848.52,615.7,854.31,621.89,861.66,621.79z"/>
			<path class="st0" d="M638.2,630.65c2.46-2.74,4.3-5.34,6.65-7.31c6.09-5.12,12.01-10.34,15.49-17.68
				c3.95-8.33,4.36-16.76,0.17-25.19c-1.34-2.7-2.67-5.41-4.52-9.18c-2.51,5.95-5.12,10.76-6.56,15.9
				c-1.72,6.13,0.71,12.07,2.51,17.93c0.59,1.91,1.4,3.84,1.46,5.77c0.04,1.13-1,2.6-1.99,3.34c-0.46,0.35-2.19-0.39-2.92-1.08
				c-4.38-4.18-6.21-9.74-7.26-15.43c-2.68-14.55,1.32-27.29,11.27-38.17c2.76-3.02,4.22-2.96,6.93,0.02
				c16.54,18.17,16.09,43.46-1.21,60.79c-3.32,3.33-7.15,6.14-10.68,9.26C645.08,631.8,642.37,632.12,638.2,630.65z"/>
		</g>
	</g>
</g>
<text transform="matrix(0.8809 0 0 1 403.6533 428.4326)" class="st1 st2 st3">Fae Thee Well</text>
</svg>
